<svg width="290" height="291" viewBox="0 0 290 291" fill="none" xmlns="http://www.w3.org/2000/svg">
<path d="M78.1011 47.1712C81.3524 33.763 100.422 33.763 103.673 47.1712L112.619 84.0648C113.78 88.852 117.518 92.5896 122.305 93.7504L159.199 102.697C172.607 105.948 172.607 125.017 159.199 128.269L122.305 137.215C117.518 138.376 113.78 142.113 112.619 146.901L103.673 183.794C100.422 197.202 81.3524 197.202 78.1011 183.794L69.1549 146.901C67.9941 142.113 64.2564 138.376 59.4693 137.215L22.5757 128.269C9.16748 125.017 9.16747 105.948 22.5757 102.697L59.4693 93.7505C64.2564 92.5896 67.9941 88.852 69.1549 84.0648L78.1011 47.1712Z" fill="#2BDA89"/>
<path d="M185.499 175.926C187.5 167.674 199.235 167.674 201.236 175.926L206.742 198.629C207.456 201.575 209.756 203.875 212.702 204.59L235.406 210.095C243.657 212.096 243.657 223.831 235.406 225.832L212.702 231.337C209.756 232.051 207.456 234.352 206.742 237.297L201.236 260.001C199.235 268.252 187.5 268.252 185.499 260.001L179.994 237.297C179.28 234.352 176.98 232.051 174.034 231.337L151.33 225.832C143.079 223.831 143.079 212.096 151.33 210.095L174.034 204.59C176.98 203.875 179.28 201.575 179.994 198.629L185.499 175.926Z" fill="#2BDA89"/>
<path d="M224.374 45.6974C225.687 40.2826 233.388 40.2826 234.701 45.6974L238.314 60.5967C238.783 62.53 240.292 64.0395 242.225 64.5083L257.125 68.1211C262.54 69.4341 262.54 77.1353 257.125 78.4483L242.225 82.0612C240.292 82.53 238.783 84.0394 238.314 85.9727L234.701 100.872C233.388 106.287 225.687 106.287 224.374 100.872L220.761 85.9727C220.292 84.0394 218.783 82.53 216.85 82.0612L201.95 78.4483C196.535 77.1353 196.535 69.4341 201.95 68.1211L216.85 64.5083C218.783 64.0395 220.292 62.53 220.761 60.5967L224.374 45.6974Z" fill="#2BDA89"/>
<path fill-rule="evenodd" clip-rule="evenodd" d="M229.538 48.3408L226.589 60.5013C225.41 65.3621 221.615 69.1573 216.754 70.336L204.594 73.2847L216.754 76.2335C221.615 77.4121 225.41 81.2073 226.589 86.0681L229.538 98.2286L232.486 86.0681C233.665 81.2073 237.46 77.4121 242.321 76.2335L254.481 73.2847L242.321 70.336C237.46 69.1573 233.665 65.3621 232.486 60.5013L229.538 48.3408ZM235.439 41.7564C233.938 35.568 225.137 35.568 223.636 41.7564L219.507 58.7842C218.971 60.9936 217.246 62.7187 215.037 63.2545L198.009 67.3835C191.821 68.8841 191.821 77.6854 198.009 79.186L215.037 83.315C217.246 83.8507 218.971 85.5758 219.507 87.7853L223.636 104.813C225.137 111.001 233.938 111.001 235.439 104.813L239.568 87.7853C240.104 85.5758 241.829 83.8507 244.038 83.315L261.066 79.186C267.254 77.6854 267.254 68.8841 261.066 67.3835L244.038 63.2545C241.829 62.7187 240.104 60.9936 239.568 58.7842L235.439 41.7564Z" fill="#2BDA89"/>
<path d="M84.8589 278.246C78.2002 278.246 72.8023 272.848 72.8023 266.19C72.8023 259.531 78.2002 254.133 84.8589 254.133C91.5175 254.133 96.9154 259.531 96.9154 266.19C96.9154 272.848 91.5175 278.246 84.8589 278.246Z" fill="#2BDA89"/>
<path d="M24.5761 230.02C17.9174 230.02 12.5195 224.622 12.5195 217.963C12.5195 211.305 17.9174 205.907 24.5761 205.907C31.2347 205.907 36.6326 211.305 36.6326 217.963C36.6326 224.622 31.2347 230.02 24.5761 230.02Z" fill="#2BDA89"/>
<path d="M157.198 37.1151C150.54 37.1151 145.142 31.7172 145.142 25.0585C145.142 18.3999 150.54 13.002 157.198 13.002C163.857 13.002 169.255 18.3999 169.255 25.0585C169.255 31.7172 163.857 37.1151 157.198 37.1151Z" fill="#2BDA89"/>
<path d="M265.707 169.737C259.049 169.737 253.651 164.339 253.651 157.681C253.651 151.022 259.049 145.624 265.707 145.624C272.366 145.624 277.764 151.022 277.764 157.681C277.764 164.339 272.366 169.737 265.707 169.737Z" fill="#2BDA89"/>
</svg>
