<svg width="24" height="25" viewBox="0 0 24 25" fill="none" xmlns="http://www.w3.org/2000/svg">
<path fill-rule="evenodd" clip-rule="evenodd" d="M22.7677 9.22677L10.5646 21.2945C8.54255 23.2942 5.26398 23.2942 3.24198 21.2945C1.21998 19.2956 1.21998 16.0539 3.24198 14.0542L14.2254 3.19249C15.5728 1.85963 17.7585 1.85963 19.1068 3.19249C20.4542 4.52534 20.4542 6.68706 19.1068 8.01906L8.12339 18.8808C7.44967 19.5476 6.35682 19.5476 5.68225 18.8808C5.00854 18.2148 5.00854 17.1339 5.68225 16.4671L15.446 6.81306L14.2254 5.6062L4.46253 15.261C3.11425 16.593 3.11425 18.7548 4.46253 20.0885C5.80996 21.4205 7.99568 21.4205 9.34397 20.0876L20.3265 9.22677C22.3485 7.22791 22.3494 3.98448 20.3274 1.98563C18.3045 -0.0140888 15.0268 -0.0140888 13.0048 1.98563L1.41111 13.4499L1.45398 13.4919C-0.652876 16.1696 -0.466887 20.0405 2.0214 22.5013C4.51054 24.9622 8.42425 25.1465 11.132 23.0628L11.174 23.1048L23.9882 10.4336L22.7677 9.22677Z" fill="#616161"/>
</svg>
