<svg width="17" height="17" viewBox="0 0 17 17" fill="none" xmlns="http://www.w3.org/2000/svg">
<g id="ph:file-audio-fill">
<path id="Vector" d="M10.0434 11.8449C10.0429 12.2987 9.92399 12.7445 9.69841 13.1382C9.47284 13.5319 9.14843 13.86 8.75724 14.09C8.64009 14.1483 8.50512 14.1598 8.3798 14.1221C8.25448 14.0844 8.14823 14.0004 8.08267 13.8872C8.01711 13.7739 7.99717 13.6399 8.02691 13.5125C8.05665 13.385 8.13384 13.2737 8.24276 13.2012C8.47862 13.062 8.6741 12.8636 8.8099 12.6258C8.9457 12.3879 9.01713 12.1188 9.01713 11.8449C9.01713 11.571 8.9457 11.3018 8.8099 11.064C8.6741 10.8261 8.47862 10.6278 8.24276 10.4886C8.13384 10.4161 8.05665 10.3047 8.02691 10.1773C7.99717 10.0499 8.01711 9.91588 8.08267 9.80263C8.14823 9.68938 8.25448 9.60536 8.3798 9.56768C8.50512 9.53001 8.64009 9.5415 8.75724 9.59982C9.14843 9.82979 9.47284 10.1579 9.69841 10.5516C9.92399 10.9453 10.0429 11.3911 10.0434 11.8449ZM6.63886 8.53999C6.54486 8.501 6.44141 8.49075 6.34159 8.51055C6.24177 8.53036 6.15006 8.57932 6.07807 8.65125L4.68576 10.0442H3.35518C3.21873 10.0442 3.08787 10.0984 2.99139 10.1949C2.8949 10.2914 2.8407 10.4222 2.8407 10.5587V13.1311C2.8407 13.2675 2.8949 13.3984 2.99139 13.4949C3.08787 13.5914 3.21873 13.6456 3.35518 13.6456H4.68576L6.07807 15.0385C6.15003 15.1106 6.24174 15.1596 6.34159 15.1795C6.44144 15.1994 6.54495 15.1892 6.63901 15.1502C6.73307 15.1113 6.81345 15.0453 6.86997 14.9606C6.9265 14.8759 6.95663 14.7764 6.95655 14.6745V9.01524C6.95653 8.91349 6.92634 8.81403 6.86979 8.72943C6.81324 8.64484 6.73288 8.57891 6.63886 8.53999ZM14.1593 5.92835V14.1601C14.1593 14.433 14.0509 14.6947 13.8579 14.8876C13.665 15.0806 13.4032 15.189 13.1303 15.189H11.0724C10.936 15.189 10.8051 15.1348 10.7086 15.0383C10.6121 14.9419 10.5579 14.811 10.5579 14.6745C10.5579 14.5381 10.6121 14.4072 10.7086 14.3108C10.8051 14.2143 10.936 14.1601 11.0724 14.1601H13.1303V6.44284H10.0434C9.90699 6.44284 9.77613 6.38863 9.67965 6.29215C9.58316 6.19566 9.52896 6.0648 9.52896 5.92835V2.84146H3.86966V7.98628C3.86966 8.12273 3.81546 8.25359 3.71897 8.35007C3.62249 8.44656 3.49163 8.50076 3.35518 8.50076C3.21873 8.50076 3.08787 8.44656 2.99139 8.35007C2.8949 8.25359 2.8407 8.12273 2.8407 7.98628V2.84146C2.8407 2.56857 2.94911 2.30684 3.14207 2.11388C3.33504 1.92091 3.59676 1.8125 3.86966 1.8125H10.0434C10.111 1.81245 10.178 1.82571 10.2404 1.85153C10.3029 1.87735 10.3596 1.91522 10.4074 1.96299L14.0088 5.56436C14.0566 5.61217 14.0944 5.66893 14.1203 5.73139C14.1461 5.79384 14.1593 5.86077 14.1593 5.92835ZM10.5579 5.41387H12.403L10.5579 3.56881V5.41387Z" fill="white"/>
</g>
</svg>
