<svg width="25" height="25" viewBox="0 0 25 25" fill="none" xmlns="http://www.w3.org/2000/svg">
<path d="M22.8841 19.1321C22.8841 19.4921 22.8041 19.8621 22.6341 20.2221C22.4641 20.5821 22.2441 20.9221 21.9541 21.2421C21.4641 21.7821 20.9241 22.1721 20.3141 22.4221C19.7141 22.6721 19.0641 22.8021 18.3641 22.8021C17.3441 22.8021 16.2541 22.5621 15.1041 22.0721C13.9541 21.5821 12.8041 20.9221 11.6641 20.0921C10.5141 19.2521 9.42406 18.3221 8.38406 17.2921C7.35406 16.2521 6.42406 15.1621 5.59406 14.0221C4.77406 12.8821 4.11406 11.7421 3.63406 10.6121C3.15406 9.47212 2.91406 8.38212 2.91406 7.34212C2.91406 6.66212 3.03406 6.01212 3.27406 5.41212C3.51406 4.80212 3.89406 4.24212 4.42406 3.74212C5.06406 3.11212 5.76406 2.80212 6.50406 2.80212C6.78406 2.80212 7.06406 2.86212 7.31406 2.98212C7.57406 3.10212 7.80406 3.28212 7.98406 3.54212L10.3041 6.81212C10.4841 7.06212 10.6141 7.29212 10.7041 7.51212C10.7941 7.72212 10.8441 7.93212 10.8441 8.12212C10.8441 8.36212 10.7741 8.60212 10.6341 8.83212C10.5041 9.06212 10.3141 9.30212 10.0741 9.54212L9.31406 10.3321C9.20406 10.4421 9.15406 10.5721 9.15406 10.7321C9.15406 10.8121 9.16406 10.8821 9.18406 10.9621C9.21406 11.0421 9.24406 11.1021 9.26406 11.1621C9.44406 11.4921 9.75406 11.9221 10.1941 12.4421C10.6441 12.9621 11.1241 13.4921 11.6441 14.0221C12.1841 14.5521 12.7041 15.0421 13.2341 15.4921C13.7541 15.9321 14.1841 16.2321 14.5241 16.4121C14.5741 16.4321 14.6341 16.4621 14.7041 16.4921C14.7841 16.5221 14.8641 16.5321 14.9541 16.5321C15.1241 16.5321 15.2541 16.4721 15.3641 16.3621L16.1241 15.6121C16.3741 15.3621 16.6141 15.1721 16.8441 15.0521C17.0741 14.9121 17.3041 14.8421 17.5541 14.8421C17.7441 14.8421 17.9441 14.8821 18.1641 14.9721C18.3841 15.0621 18.6141 15.1921 18.8641 15.3621L22.1741 17.7121C22.4341 17.8921 22.6141 18.1021 22.7241 18.3521C22.8241 18.6021 22.8841 18.8521 22.8841 19.1321Z" stroke="#089361" stroke-width="1.5" stroke-miterlimit="10"/>
</svg>
