<svg width="24" height="24" viewBox="0 0 24 24" fill="none" xmlns="http://www.w3.org/2000/svg">
<path d="M6.16194 16.3293C5.84554 16.6457 5.83047 17.2107 6.16948 17.5422C6.50095 17.8736 7.06596 17.8661 7.38237 17.5497L11.9929 12.9317L16.6109 17.5497C16.9348 17.8736 17.4923 17.8736 17.8238 17.5422C18.1477 17.2032 18.1552 16.6532 17.8238 16.3293L13.2133 11.7112L17.8238 7.10075C18.1552 6.77681 18.1552 6.21933 17.8238 5.88786C17.4848 5.56392 16.9348 5.55639 16.6109 5.88033L11.9929 10.4984L7.38237 5.88033C7.06596 5.56392 6.49342 5.54885 6.16948 5.88786C5.838 6.21933 5.84554 6.78434 6.16194 7.10075L10.78 11.7112L6.16194 16.3293Z" fill="white"/>
</svg>
