<svg width="24" height="24" viewBox="0 0 24 24" fill="none" xmlns="http://www.w3.org/2000/svg">
<path d="M19.1021 8.70742C18.8792 6.27979 17.4757 4.12732 15.3642 2.97449C13.2525 1.82166 10.7135 1.82166 8.60214 2.97449C6.49067 4.12751 5.08713 6.27998 4.86422 8.70742C3.75476 8.9472 2.81747 9.69677 2.32614 10.7368C1.83481 11.7768 1.84506 12.9898 2.35409 14.021C2.86291 15.0522 3.81299 15.7853 4.92628 16.0056C5.20162 17.7085 6.06205 19.2566 7.3544 20.3744C8.64671 21.4922 10.287 22.1071 11.9834 22.1099H13.0173C13.6803 22.1099 14.3161 21.8418 14.7849 21.3649C15.2537 20.8881 15.5169 20.2412 15.5169 19.5667C15.5169 18.8921 15.2537 18.2452 14.7849 17.7682C14.3161 17.2913 13.6803 17.0234 13.0173 17.0234C12.3544 17.0234 11.7186 17.2913 11.2498 17.7682C10.781 18.2452 10.5176 18.8921 10.5176 19.5667V20.3346C9.41047 20.026 8.42269 19.3801 7.68703 18.4834C6.95133 17.5868 6.50311 16.4826 6.40248 15.3192C6.4775 11.1322 6.48255 9.79615 6.38445 9.27015H6.38427C6.40699 7.23509 7.49498 5.3668 9.23864 4.36895C10.9823 3.37134 13.1167 3.3959 14.8379 4.43353C16.559 5.47097 17.6051 7.36387 17.5826 9.39907V9.44383C17.4715 15.4928 17.5181 15.5506 17.8024 15.8479H17.8022C17.9505 15.9987 18.1511 16.0838 18.3607 16.0845C19.5672 16.0649 20.6868 15.4419 21.3539 14.419C22.0212 13.396 22.1504 12.1043 21.6994 10.9656C21.2486 9.82692 20.2753 8.98706 19.0975 8.72049L19.1021 8.70742Z" fill="#45C49C"/>
</svg>
