<svg width="16" height="17" viewBox="0 0 16 17" fill="none" xmlns="http://www.w3.org/2000/svg">
<path d="M10.25 2.8396L13.25 5.8396M14.8805 4.19852C15.277 3.80209 15.4998 3.26437 15.4999 2.70366C15.4999 2.14295 15.2773 1.60518 14.8808 1.20864C14.4844 0.812112 13.9467 0.589304 13.386 0.589233C12.8253 0.589163 12.2875 0.811837 11.891 1.20827L1.88145 11.22C1.70732 11.3936 1.57854 11.6074 1.50645 11.8425L0.515701 15.1065C0.496317 15.1714 0.494853 15.2403 0.511464 15.3059C0.528075 15.3715 0.562141 15.4314 0.610048 15.4793C0.657955 15.5271 0.717916 15.5611 0.78357 15.5776C0.849223 15.5941 0.91812 15.5925 0.982951 15.573L4.2477 14.583C4.48258 14.5116 4.69633 14.3836 4.8702 14.2103L14.8805 4.19852Z" stroke="white" stroke-linecap="round" stroke-linejoin="round"/>
</svg>
