<svg width="24" height="24" viewBox="0 0 24 24" fill="none" xmlns="http://www.w3.org/2000/svg">
<path d="M9.4701 15.2801C9.37158 15.2805 9.27397 15.2612 9.18297 15.2234C9.09198 15.1856 9.00941 15.1301 8.9401 15.0601C8.53826 14.6583 8.2195 14.1812 8.00202 13.6562C7.78454 13.1311 7.67261 12.5684 7.67261 12.0001C7.67261 11.4318 7.78454 10.8691 8.00202 10.344C8.2195 9.81901 8.53826 9.34195 8.9401 8.9401C9.34195 8.53826 9.81901 8.2195 10.344 8.00202C10.8691 7.78454 11.4318 7.67261 12.0001 7.67261C12.5684 7.67261 13.1311 7.78454 13.6562 8.00202C14.1812 8.2195 14.6583 8.53826 15.0601 8.9401C15.1299 9.0096 15.1853 9.09219 15.223 9.18315C15.2608 9.2741 15.2803 9.37161 15.2803 9.4701C15.2803 9.56859 15.2608 9.66611 15.223 9.75706C15.1853 9.84801 15.1299 9.9306 15.0601 10.0001L10.0001 15.0601C9.93079 15.1301 9.84823 15.1856 9.75723 15.2234C9.66623 15.2612 9.56863 15.2805 9.4701 15.2801ZM12.0001 9.1701C11.5049 9.17031 11.0184 9.30042 10.5891 9.54745C10.1599 9.79448 9.80299 10.1498 9.55403 10.5779C9.30506 11.006 9.17275 11.4919 9.17031 11.9871C9.16786 12.4824 9.29537 12.9696 9.5401 13.4001L13.4001 9.5401C12.9737 9.29684 12.491 9.16929 12.0001 9.1701Z" fill="#333333"/>
<path d="M5.60007 18.51C5.42062 18.5096 5.24707 18.4459 5.11007 18.33C3.99698 17.3707 3.03602 16.2479 2.26007 15C1.73907 14.086 1.46509 13.052 1.46509 12C1.46509 10.9479 1.73907 9.91399 2.26007 8.99998C4.70007 5.17998 8.25007 2.97998 12.0001 2.97998C14.2731 3.00619 16.4751 3.77531 18.2701 5.16998C18.4292 5.28933 18.5344 5.467 18.5625 5.66391C18.5907 5.86083 18.5394 6.06085 18.4201 6.21998C18.3007 6.37911 18.123 6.48431 17.9261 6.51244C17.7292 6.54057 17.5292 6.48933 17.3701 6.36998C15.8353 5.16904 13.9487 4.50506 12.0001 4.47998C8.77007 4.47998 5.68007 6.41998 3.52007 9.80998C3.15102 10.4809 2.95751 11.2342 2.95751 12C2.95751 12.7657 3.15102 13.519 3.52007 14.19C4.22459 15.308 5.08681 16.3184 6.08007 17.19C6.23023 17.3206 6.32285 17.5051 6.33783 17.7035C6.35281 17.902 6.28893 18.0983 6.16007 18.25C6.09157 18.3318 6.00588 18.3975 5.90909 18.4425C5.81229 18.4874 5.70678 18.5105 5.60007 18.51Z" fill="#333333"/>
<path d="M12.0001 21.0199C10.666 21.0181 9.34609 20.746 8.12009 20.2199C8.02947 20.1819 7.94725 20.1263 7.87811 20.0564C7.80897 19.9866 7.75426 19.9038 7.71712 19.8128C7.67998 19.7218 7.66112 19.6244 7.66163 19.5261C7.66214 19.4278 7.682 19.3306 7.72009 19.2399C7.75817 19.1493 7.81373 19.0671 7.88359 18.998C7.95345 18.9288 8.03624 18.8741 8.12724 18.837C8.21824 18.7998 8.31567 18.781 8.41396 18.7815C8.51225 18.782 8.60947 18.8019 8.70009 18.8399C9.73972 19.286 10.8588 19.5173 11.9901 19.5199C15.2201 19.5199 18.3101 17.5799 20.4701 14.1899C20.8391 13.519 21.0326 12.7657 21.0326 11.9999C21.0326 11.2342 20.8391 10.4809 20.4701 9.80995C20.162 9.32329 19.8247 8.85577 19.4601 8.40995C19.3357 8.25414 19.2776 8.05572 19.2982 7.85744C19.3187 7.65916 19.4164 7.4769 19.5701 7.34995C19.6467 7.28712 19.735 7.2401 19.8299 7.21161C19.9248 7.18311 20.0245 7.17371 20.123 7.18394C20.2216 7.19417 20.3171 7.22382 20.4042 7.2712C20.4912 7.31857 20.568 7.38273 20.6301 7.45995C21.0304 7.95071 21.4011 8.46496 21.7401 8.99995C22.2611 9.91395 22.5351 10.9479 22.5351 11.9999C22.5351 13.052 22.2611 14.0859 21.7401 14.9999C19.3001 18.8199 15.7501 21.0199 12.0001 21.0199Z" fill="#333333"/>
<path d="M12.69 16.2701C12.5153 16.2693 12.3462 16.2082 12.2113 16.097C12.0765 15.9858 11.9842 15.8315 11.95 15.6601C11.9307 15.5634 11.931 15.4639 11.951 15.3673C11.9709 15.2708 12.0099 15.1792 12.0659 15.0981C12.1219 15.017 12.1936 14.9479 12.2767 14.895C12.3599 14.8421 12.4528 14.8064 12.55 14.7901C13.0984 14.6818 13.6023 14.4129 13.9976 14.0176C14.3928 13.6223 14.6617 13.1185 14.77 12.5701C14.8084 12.3745 14.9222 12.2018 15.0869 12.0895C15.2516 11.9772 15.4539 11.9343 15.65 11.9701C15.7474 11.9882 15.8401 12.0254 15.923 12.0795C16.0059 12.1336 16.0773 12.2035 16.133 12.2853C16.1888 12.3671 16.2278 12.4591 16.2479 12.556C16.268 12.653 16.2687 12.7529 16.25 12.8501C16.0887 13.6974 15.6764 14.4766 15.0665 15.0865C14.4566 15.6964 13.6773 16.1088 12.83 16.2701C12.7835 16.2651 12.7366 16.2651 12.69 16.2701Z" fill="#333333"/>
<path d="M1.9999 22.7501C1.90137 22.7505 1.80377 22.7312 1.71277 22.6934C1.62177 22.6556 1.53921 22.6001 1.4699 22.5301C1.33042 22.389 1.2522 22.1985 1.2522 22.0001C1.2522 21.8017 1.33042 21.6112 1.4699 21.4701L8.9399 14.0011C9.08207 13.8686 9.27012 13.7965 9.46442 13.7999C9.65872 13.8033 9.84411 13.8821 9.98152 14.0195C10.1189 14.1569 10.1976 14.3423 10.2011 14.5366C10.2045 14.7309 10.1324 14.9189 9.9999 15.0611L2.5299 22.5311C2.4605 22.6009 2.3779 22.6563 2.28691 22.6939C2.19592 22.7315 2.09835 22.7506 1.9999 22.7501Z" fill="#333333"/>
<path d="M14.5299 10.2211C14.4314 10.2214 14.3338 10.2021 14.2428 10.1644C14.1518 10.1266 14.0692 10.0711 13.9999 10.0011C13.8604 9.85993 13.7822 9.6695 13.7822 9.47107C13.7822 9.27264 13.8604 9.0822 13.9999 8.94107L21.4699 1.47107C21.6121 1.33859 21.8001 1.26646 21.9945 1.26989C22.1888 1.27332 22.3741 1.35203 22.5115 1.48945C22.649 1.62686 22.7277 1.81224 22.7311 2.00654C22.7345 2.20085 22.6624 2.38889 22.5299 2.53107L15.0599 10.0011C14.9906 10.0711 14.9081 10.1266 14.8171 10.1644C14.7261 10.2021 14.6285 10.2214 14.5299 10.2211Z" fill="#333333"/>
</svg>
