<svg width="17" height="17" viewBox="0 0 17 17" fill="none" xmlns="http://www.w3.org/2000/svg">
<g id="solar:gallery-bold">
<g id="Group">
<path id="Vector" d="M12.6159 5.75672C12.6159 6.12058 12.4713 6.46954 12.214 6.72683C11.9567 6.98412 11.6078 7.12867 11.2439 7.12867C10.88 7.12867 10.5311 6.98412 10.2738 6.72683C10.0165 6.46954 9.87195 6.12058 9.87195 5.75672C9.87195 5.39285 10.0165 5.04389 10.2738 4.7866C10.5311 4.52931 10.88 4.38477 11.2439 4.38477C11.6078 4.38477 11.9567 4.52931 12.214 4.7866C12.4713 5.04389 12.6159 5.39285 12.6159 5.75672Z" fill="white"/>
<path id="Vector_2" fill-rule="evenodd" clip-rule="evenodd" d="M8.46087 1.12695H8.53907C10.123 1.12695 11.3639 1.12695 12.3325 1.25729C13.3231 1.39037 14.1051 1.66887 14.719 2.28214C15.333 2.89608 15.6108 3.6781 15.7439 4.66933C15.8742 5.63724 15.8742 6.87817 15.8742 8.46209V8.52246C15.8742 9.83198 15.8742 10.9035 15.8029 11.776C15.7315 12.6541 15.5854 13.386 15.2575 13.9952C15.1135 14.2634 14.9351 14.5042 14.719 14.7202C14.1051 15.3342 13.3231 15.612 12.3318 15.7451C11.3639 15.8754 10.123 15.8754 8.53907 15.8754H8.46087C6.87695 15.8754 5.63602 15.8754 4.66742 15.7451C3.67688 15.612 2.89486 15.3335 2.28092 14.7202C1.73694 14.1763 1.45569 13.4992 1.30683 12.6582C1.15935 11.833 1.13259 10.8061 1.1271 9.53153C1.12573 9.20706 1.12573 8.86407 1.12573 8.50188V8.46209C1.12573 6.87817 1.12573 5.63724 1.25607 4.66865C1.38915 3.6781 1.66765 2.89608 2.28092 2.28214C2.89486 1.66819 3.67688 1.39037 4.66811 1.25729C5.63602 1.12695 6.87695 1.12695 8.46087 1.12695ZM4.80462 2.27665C3.92794 2.39464 3.39906 2.61964 3.00874 3.00996C2.61773 3.40096 2.39342 3.92916 2.27543 4.80653C2.15607 5.69829 2.1547 6.86994 2.1547 8.50119V9.08015L2.84136 8.47855C3.14264 8.21499 3.53283 8.07579 3.9329 8.08917C4.33297 8.10254 4.713 8.26748 4.99601 8.55058L7.93884 11.4934C8.16721 11.7217 8.46879 11.8622 8.79051 11.89C9.11224 11.9179 9.43347 11.8314 9.69768 11.6457L9.9021 11.5016C10.2833 11.2338 10.7441 11.1032 11.2091 11.1312C11.6742 11.1593 12.1159 11.3443 12.4622 11.656L14.4035 13.4032C14.5997 12.993 14.7156 12.4538 14.7773 11.693C14.8446 10.8664 14.8452 9.8361 14.8452 8.50119C14.8452 6.86994 14.8439 5.69829 14.7245 4.80653C14.6065 3.92916 14.3815 3.40028 13.9912 3.00927C13.6002 2.61895 13.072 2.39464 12.1946 2.27665C11.3029 2.15729 10.1312 2.15592 8.49997 2.15592C6.86872 2.15592 5.69639 2.15729 4.80462 2.27665Z" fill="white"/>
</g>
</g>
</svg>
