<svg width="60" height="44" viewBox="0 0 60 44" fill="none" xmlns="http://www.w3.org/2000/svg">
<path d="M53.3333 0H6.66667C4.89856 0 3.20286 0.702379 1.95262 1.95262C0.702379 3.20286 0 4.89856 0 6.66667L0 36.6667C0 38.4348 0.702379 40.1305 1.95262 41.3807C3.20286 42.631 4.89856 43.3333 6.66667 43.3333H53.3333C55.1014 43.3333 56.7971 42.631 58.0474 41.3807C59.2976 40.1305 60 38.4348 60 36.6667V6.66667C60 4.89856 59.2976 3.20286 58.0474 1.95262C56.7971 0.702379 55.1014 0 53.3333 0Z" fill="#006C35"/>
<path d="M14.865 15.0833C15.9183 15.1833 15.3367 13.3017 15.7183 12.96C15.79 12.7917 15.9233 12.79 15.9333 13.0033V14.6C15.9233 15.12 16.265 15.2717 16.53 15.38C16.8067 15.3583 16.99 15.3683 17.0983 15.6367L17.2283 18.4C17.2283 18.4 17.8683 18.5833 17.8983 16.845C17.93 15.825 17.695 14.9717 17.8333 14.7733C17.8383 14.5783 18.0867 14.5667 18.26 14.6617C18.535 14.855 18.6583 15.095 19.085 15C19.7367 14.8217 20.1267 14.505 20.1367 14.005C20.0983 13.53 20.045 13.055 19.84 12.58C19.8683 12.4933 19.715 12.27 19.7433 12.1833C19.86 12.3667 20.0383 12.3517 20.0783 12.1833C19.9683 11.8183 19.7967 11.4683 19.5167 11.3167C19.2867 11.1133 18.95 11.155 18.8267 11.5783C18.77 12.065 19.0033 12.645 19.3567 13.1167C19.4317 13.3017 19.5383 13.6083 19.4917 13.885C19.3033 13.9917 19.1133 13.9483 18.9567 13.7817C18.9567 13.7817 18.4383 13.3933 18.4383 13.3067C18.5767 12.4267 18.47 12.3267 18.3933 12.0833C18.34 11.7467 18.18 11.6383 18.05 11.4083C17.92 11.2717 17.745 11.2717 17.6617 11.4083C17.4317 11.805 17.5383 12.6583 17.705 13.04C17.8233 13.39 18.0067 13.6117 17.92 13.6117C17.8483 13.81 17.7017 13.7633 17.595 13.535C17.4417 13.0617 17.4117 12.3567 17.4117 12.0383C17.365 11.645 17.315 10.8033 17.0567 10.59C16.8983 10.375 16.6633 10.4783 16.5817 10.6767C16.565 11.0667 16.5617 11.4583 16.6067 11.82C16.7833 12.4517 16.84 13.0083 16.9267 13.6567C16.95 14.525 16.425 14.0333 16.4483 13.6033C16.57 13.045 16.5383 12.165 16.43 11.9417C16.345 11.72 16.2433 11.6633 16.0367 11.7C15.8733 11.6867 15.45 12.15 15.33 12.9167C15.33 12.9167 15.2283 13.3117 15.185 13.6633C15.1267 14.06 14.8667 14.34 14.6833 13.6083C14.525 13.0767 14.4283 11.765 14.1633 12.0717C14.0867 13.0967 13.995 14.9 14.865 15.0833Z" fill="white"/>
<path d="M16.45 15.8317C15.5833 15.8483 14.315 16.97 14.28 17.5917C15.1933 17.1517 16.0916 16.7283 17.0216 16.275C16.8716 16.05 17.0133 15.8483 16.45 15.8317Z" fill="white"/>
<path d="M21.2283 19.1933C21.63 17.8549 21.1633 16.8683 21.3817 16.8733C21.8433 17.3716 22.49 16.9399 22.6317 16.7666C22.6933 16.6799 22.845 16.6233 22.9517 16.7366C23.3133 16.9966 23.95 16.8733 24.0817 16.4166C24.1649 15.9579 24.2161 15.494 24.235 15.0283C23.94 15.1199 23.72 15.1816 23.7 15.3033L23.6383 15.6999C23.6133 15.8283 23.3583 15.8333 23.3483 15.6699C23.2367 15.1616 22.7733 15.0949 22.4933 15.8833C22.305 16.0366 21.965 16.0666 21.9283 15.8383C21.9733 15.3099 21.76 15.2383 21.3333 15.4866C21.1967 14.4383 21.0583 13.4366 20.9217 12.3883C21.1 12.3833 21.2633 12.5149 21.425 12.3116C21.2467 11.7566 20.87 10.6233 20.6617 10.5416C20.56 10.4183 20.4733 10.4949 20.3417 10.5266C20.1183 10.5983 19.91 10.7916 19.975 11.1666C20.24 12.7749 20.4133 13.9999 20.6767 15.6083C20.7167 15.7966 20.56 16.0449 20.3567 16.0199C20.0117 15.7866 19.925 15.3133 19.335 15.3333C18.9067 15.3383 18.4183 15.8016 18.3583 16.2499C18.2867 16.6049 18.2617 16.9916 18.3583 17.3033C18.6583 17.6633 19.02 17.6283 19.335 17.5466C19.5933 17.4399 19.8083 17.1799 19.8983 17.2416C19.96 17.3166 19.9133 18.1716 18.6783 18.8283C17.93 19.1633 17.335 19.2399 17.015 18.6299C16.8167 18.2483 17.03 16.7983 16.5417 17.1349C15.0967 20.8599 19.925 21.3766 20.465 17.2883C20.5167 17.1199 20.72 16.9516 20.755 17.2266C20.6433 20.9299 17.02 21.1849 16.405 20.0199C16.2517 19.7449 16.2067 19.1349 16.1917 18.7683C16.1 18.0399 15.7183 18.3199 15.6583 19.0416C15.5967 19.4433 15.6133 19.5566 15.6133 19.9416C15.805 22.8666 20.4717 21.6099 21.2283 19.1933ZM19.4283 16.6633C19.3983 16.7199 19.2667 16.6966 19.17 16.6966C19.06 16.6916 19.0083 16.6733 18.9417 16.5849C18.9117 16.4849 19.005 16.3899 19.0467 16.3149C19.0983 16.2266 19.3767 16.1349 19.475 16.3816C19.4932 16.4284 19.4985 16.4793 19.4902 16.5288C19.482 16.5784 19.4606 16.6248 19.4283 16.6633Z" fill="white"/>
<path d="M22.67 13.3483C22.96 13.2416 24.335 11.67 24.335 11.67C24.2633 11.6083 24.2 11.5633 24.1283 11.5016C24.0516 11.435 24.06 11.3683 24.1283 11.3033C24.4683 11.105 24.36 10.67 24.1816 10.4716C24.0663 10.415 23.9393 10.3862 23.8109 10.3873C23.6824 10.3885 23.556 10.4196 23.4416 10.4783C23.2033 10.7066 23.1466 11.0733 23.335 11.3033C23.5183 11.39 23.7016 11.575 23.58 11.6766C23.0183 12.2766 21.4783 13.3116 21.6566 13.3483C21.695 13.3983 22.64 13.3966 22.67 13.3483ZM23.6883 10.88C23.7766 10.8583 23.89 10.9366 23.9433 11.0533C23.9966 11.17 23.9683 11.2816 23.8816 11.3033H23.8783C23.7916 11.325 23.6783 11.2466 23.625 11.13C23.5733 11.0116 23.6016 10.9016 23.6883 10.88ZM14.77 20.43C14.5433 20.8916 14.4483 20.575 14.4283 20.3166C14.4023 19.8828 14.4241 19.4474 14.4933 19.0183C14.55 18.6516 14.4933 18.7633 14.3766 18.9116C13.8616 19.7316 13.8166 20.9583 14.1016 21.3233C14.2516 21.4966 14.5 21.5733 14.685 21.5166C15.0083 21.3766 15.15 20.72 15.0733 20.4816C14.9633 20.3133 14.8783 20.2866 14.77 20.43ZM31.7383 11.75C32.3316 12.5466 32.895 13.3583 33.4466 14.185C33.555 14.9016 33.6333 15.6016 33.68 16.2966C33.7716 17.6366 33.7983 19.0866 33.715 20.4983C33.965 20.5083 34.37 20.0916 34.51 19.4833C34.6016 18.6416 34.4766 17.1433 34.4683 16.6466C34.4573 16.3353 34.4423 16.0242 34.4233 15.7133C35.08 16.7866 35.72 17.91 36.345 19.1583C36.5733 19.0516 36.5233 17.775 36.39 17.595C35.89 16.5233 35.2016 15.4633 34.9816 15.0566C34.9 14.9066 34.6216 14.48 34.29 13.9916C34.2615 13.6019 34.2148 13.2137 34.15 12.8283C34.0466 12.115 34.445 12.9066 34.39 12.4916C34.2616 11.7783 33.865 11.2966 33.4016 10.6433C33.2516 10.4316 33.2566 10.3883 33.025 10.695C32.9431 10.8787 32.9054 11.079 32.915 11.28C32.8426 11.1736 32.7653 11.0707 32.6833 10.9716C32.4318 10.7546 32.179 10.539 31.925 10.325C31.7566 10.205 31.3466 9.9883 31.2733 10.3483C31.2392 10.6006 31.2516 10.8571 31.31 11.105C31.3533 11.2833 31.6116 11.58 31.7383 11.75ZM32.9716 11.71C33.0033 11.8483 33.0366 11.9866 33.0583 12.1283L33.0833 12.2633C33.0134 12.1656 32.9406 12.07 32.865 11.9766C32.5916 11.6533 32.8183 11.7233 32.9716 11.71Z" fill="white"/>
<path d="M36.5316 19.4882C35.9516 20.0932 35.115 20.8382 34.205 21.1832C34.1066 21.2932 34.4483 21.7649 34.8883 21.7649C35.6266 21.6782 36.2766 21.2632 36.8783 20.1716C37.04 19.9182 37.3233 19.3732 37.33 18.9499C37.385 16.4732 37.2066 14.5449 36.835 12.7549C36.8101 12.6113 36.8169 12.4639 36.855 12.3232C36.9016 12.2666 37.065 12.3232 37.1516 12.1832C37.2766 12.0532 36.8166 10.9866 36.5533 10.5766C36.46 10.3932 36.4283 10.2699 36.2733 10.5982C36.11 10.8649 36.0016 11.3299 36.015 11.7632C36.3666 14.2016 36.475 16.3366 36.705 18.7749C36.7233 19.0099 36.6883 19.3532 36.5316 19.4882ZM46.2483 13.3049C46.2233 13.1316 46.1466 12.7282 46.1766 12.6766C46.2233 12.5532 46.465 12.6899 46.5516 12.5482C46.6783 12.4199 45.9283 11.4566 45.6666 11.0466C45.5716 10.8632 45.54 10.7399 45.385 11.0682C45.2216 11.3349 45.165 11.8132 45.23 12.2332C45.6216 14.8816 45.9133 16.8716 45.9733 19.2199C45.9383 19.4432 45.9316 19.5632 45.8266 19.8432C45.595 20.1399 45.34 20.5099 45.0983 20.6899C44.8583 20.8682 44.3466 21.0399 44.1783 21.1716C43.65 21.4799 43.6483 21.8316 44.0783 21.8432C44.815 21.7566 45.6883 21.6966 46.29 20.7866C46.4516 20.5332 46.6433 19.8449 46.6516 19.4216C46.7066 16.9449 46.62 15.0949 46.2483 13.3049ZM40.6633 15.3666C40.67 15.0266 40.7016 14.5766 40.72 14.2949C40.7283 14.1899 40.7533 14.0716 40.8533 14.0449C40.955 14.0182 41.135 14.1482 41.1366 14.0382C41.1166 13.8232 41.0733 13.5032 40.9516 13.3516C40.785 13.1049 40.3433 13.1649 40.265 13.5516C40.2666 13.6949 40.3316 13.7716 40.32 13.9016C40.3 13.9749 40.2233 14.0249 40.0416 13.9382C40.0716 13.9116 39.9233 13.7066 39.9233 13.7066C39.7816 13.6199 39.5916 13.7116 39.47 13.7899C39.4259 13.8739 39.3997 13.9661 39.3928 14.0607C39.3859 14.1554 39.3986 14.2504 39.43 14.3399C39.63 14.7182 40.3283 15.3599 40.6633 15.3666Z" fill="white"/>
<path d="M40.4283 12.4683C40.9166 13.0666 41.415 13.6733 41.9166 14.29C42.025 15.6666 42.0533 16.7933 42.16 18.17C42.145 18.7533 41.965 19.2616 41.7933 19.335C41.7933 19.335 41.535 19.485 41.3616 19.32C41.235 19.2683 40.73 18.4783 40.73 18.4783C40.4716 18.2416 40.3016 18.3083 40.1183 18.4783C39.6116 18.9666 39.3833 19.8833 39.04 20.5133C38.95 20.655 38.7 20.775 38.4216 20.5033C37.7166 19.5383 38.13 18.1666 38.0433 18.52C37.415 19.2283 37.6916 20.4 37.8333 20.6533C38.04 21.0666 38.2083 21.3333 38.6116 21.5383C38.9783 21.8083 39.265 21.6383 39.4216 21.45C39.7916 21.065 39.7966 20.09 39.97 19.8933C40.09 19.5383 40.3983 19.5983 40.5466 19.7566C40.6825 19.9483 40.8626 20.1044 41.0716 20.2116C41.4166 20.5166 41.8283 20.5716 42.2333 20.2933C42.51 20.1383 42.6916 19.9366 42.8533 19.5383C43.0333 19.0583 42.935 16.8516 42.8983 15.5283C43.1566 15.8616 43.4083 16.21 43.6633 16.5583C43.775 17.6633 43.8383 18.7633 43.8016 19.8866C43.775 20.1116 44.585 19.22 44.5783 18.7966C44.575 18.455 44.5783 18.145 44.5783 17.8533C44.9683 18.44 45.3483 19.045 45.705 19.685C45.9283 19.5683 45.855 18.31 45.7133 18.1366C45.3016 17.4466 44.7533 16.7283 44.375 16.215C44.35 16.15 44.3366 16.0766 44.3066 16.015C44.155 15.6633 44.25 15.38 44.1783 15.0066C44.1083 14.6316 44.1266 14.0716 44.0183 13.6266C43.9883 13.4533 43.8983 12.8966 43.925 12.845C43.9683 12.72 44.135 12.8483 44.2166 12.705C44.3383 12.5716 43.795 11.1633 43.5183 10.76C43.4183 10.58 43.2383 10.6416 43.015 10.935C42.81 11.1283 42.8866 11.5683 42.965 11.9866C43.16 13 43.3233 13.9716 43.4633 14.9333C43.1636 14.5349 42.8608 14.1387 42.555 13.745L42.5416 13.6716C42.5416 13.6533 42.4966 12.7983 42.4566 12.595C42.45 12.5133 42.43 12.4883 42.5166 12.4983C42.6083 12.575 42.62 12.58 42.6783 12.6066C42.7716 12.6233 42.8533 12.465 42.7983 12.32L41.9366 10.7333C41.8683 10.665 41.7783 10.5916 41.67 10.7516C41.6027 10.8104 41.5488 10.8829 41.512 10.9643C41.4752 11.0457 41.4563 11.134 41.4566 11.2233C41.4833 11.5983 41.5483 11.9816 41.5733 12.3583L41.61 12.5616C41.5716 12.5166 41.525 12.46 41.505 12.44C40.7733 11.67 41.8416 12.315 41.365 11.72C40.9616 11.2766 40.845 11.1383 40.4983 10.8716C40.325 10.76 40.22 10.5466 40.1633 10.91C40.1348 11.2286 40.1264 11.5487 40.1383 11.8683C40.1383 12.0216 40.2933 12.3016 40.4283 12.4683ZM25.5933 14.2666C26.0133 14.44 26.2816 13.64 26.455 12.7633C26.5716 12.5166 26.6616 12.49 26.7216 12.6166C26.7066 13.7833 26.805 14.0416 27.105 14.3966C27.7733 14.9133 28.3266 14.4616 28.3716 14.4183L28.8916 13.8983C29.0066 13.7766 29.1616 13.7683 29.325 13.8766C29.485 14.02 29.4633 14.27 29.8033 14.4433C30.09 14.5583 30.7033 14.47 30.845 14.2233C31.0366 13.8966 31.0833 13.7833 31.17 13.66C31.3066 13.4783 31.54 13.56 31.54 13.6166C31.5183 13.7183 31.3816 13.82 31.475 14.0016C31.6383 14.1233 31.675 14.045 31.7716 14.0183C32.1116 13.855 32.365 13.1183 32.365 13.1183C32.38 12.8433 32.2266 12.8666 32.1266 12.9233C31.9966 13.0016 31.9883 13.0283 31.8583 13.1083C31.6916 13.1333 31.37 13.2433 31.2116 12.9966C31.0483 12.7 31.045 12.2866 30.9216 11.9883C30.9216 11.9666 30.705 11.5166 30.9066 11.4883C31.0083 11.5066 31.2233 11.5633 31.2583 11.3833C31.3633 11.2066 31.03 10.7033 30.8033 10.4483C30.605 10.2316 30.33 10.205 30.065 10.4266C29.8783 10.5983 29.905 10.7883 29.8683 10.97C29.838 11.0982 29.8381 11.2317 29.8685 11.3599C29.8988 11.488 29.9587 11.6073 30.0433 11.7083C30.2283 12.0733 30.5666 12.545 30.455 13.205C30.455 13.205 30.2583 13.5183 29.9133 13.4783C29.77 13.4466 29.5366 13.385 29.4133 12.4683C29.32 11.7733 29.4366 10.8016 29.1416 10.3466C29.035 10.0716 28.9583 9.80665 28.6983 10.2766C28.6283 10.4616 28.3283 10.7416 28.5466 11.32C28.725 11.685 28.7966 12.28 28.7166 12.9433C28.5933 13.1316 28.5666 13.195 28.405 13.3833C28.1783 13.6266 27.9333 13.565 27.745 13.4733C27.5683 13.355 27.4316 13.2933 27.3516 12.9166C27.3666 12.3166 27.4 11.3333 27.29 11.125C27.1283 10.8016 26.8616 10.9183 26.7466 11.0166C26.1983 11.5183 25.9283 12.3633 25.7633 13.035C25.6116 13.525 25.45 13.385 25.3366 13.1866C25.06 12.9266 25.0416 10.8983 24.7066 11.2333C24.1683 12.7566 25.01 14.43 25.5933 14.2666Z" fill="white"/>
<path d="M33.5617 17.54L33.4017 17.4483L30.2667 17.4333C30.105 17.3716 30.1533 17.3183 30.2667 17.275C31.015 17.1733 32.3467 16.9566 32.435 15.6783C32.42 15.0133 32.1483 14.5766 31.3317 14.4566C30.7333 14.5033 30.305 15.085 30.3733 15.7233C30.345 15.8966 30.43 16.2333 30.255 16.2716C29.1033 16.3766 27.8483 17.0966 27.8067 17.6133C27.7367 17.6616 27.58 17.5216 27.6 17.3016C27.5445 16.3606 27.2737 15.4448 26.8083 14.625C26.445 14.2616 26.5583 14.3816 26.315 14.5533C26.1583 14.7333 26.13 14.8566 26.1383 15.215C26.1383 15.2283 26.4317 16.0466 26.68 16.62C26.845 17.2083 27 17.88 26.8883 18.515C26.5017 19.355 25.7233 20.1083 24.9733 20.5166C24.5867 20.6416 24.255 20.5966 24.1733 20.51C23.935 20.35 23.9467 20.055 23.965 20.05C24.5967 19.6083 25.32 19.2533 25.8867 18.065C26.0533 17.6116 26.1033 17.3366 25.9383 16.635C25.8925 16.3877 25.7788 16.158 25.61 15.9716C25.7117 15.905 26.0033 16.1266 26.0483 15.995C25.9638 15.6109 25.7726 15.2585 25.4967 14.9783C25.2717 14.7733 25.0267 14.75 24.82 14.9383C24.5867 15.0683 24.5367 15.5316 24.6483 15.9383C24.7717 16.245 25.1067 16.2966 25.3467 16.9116C25.3467 16.925 25.4333 17.3716 25.31 17.5466C25.2117 17.8533 23.9367 18.855 23.8667 18.9C23.8317 18.9433 23.8467 18.8783 23.8417 18.7116C23.8333 18.5083 23.9233 18.0283 23.8983 18.025C23.4833 18.2933 23.345 19.115 23.27 19.3583C22.22 20.0833 21.0317 20.6233 20.345 21.36C19.9867 21.9183 22.8083 20.7183 23.1367 20.5733C23.21 20.6266 23.2017 20.8783 23.3983 21.1033C23.6917 21.5 24.3117 21.745 24.92 21.5933C25.9367 21.225 26.525 20.5316 27.1217 19.7633C27.2067 19.6383 27.34 19.5433 27.4633 19.6383C27.8733 20.5566 29.0583 21.2066 30.5867 21.275C30.9417 20.8433 30.77 20.635 30.6267 20.545C30.6267 20.5316 29.8717 20.245 29.7567 19.9583C29.6867 19.6983 29.8567 19.47 30.1967 19.2966C31.1783 19.1783 32.1433 19.0466 33.0783 18.7466C33.0883 18.4333 33.27 17.9633 33.395 17.76C33.515 17.5533 33.58 17.615 33.5617 17.54ZM30.9833 15.5866C31.03 15.5083 31.185 15.5116 31.33 15.5966C31.475 15.68 31.5567 15.8133 31.5083 15.8916C31.4617 15.9716 31.305 15.9666 31.16 15.8816C31.015 15.7983 30.9367 15.6666 30.9833 15.5866ZM29.7217 18.7533C29.385 18.8683 29.0617 18.9583 29.0617 19.445C29.1867 20.1216 28.89 19.89 28.715 19.7966C28.5083 19.6483 27.9267 19.29 27.8433 18.5166C27.83 18.3316 27.975 18.1766 28.2067 18.1766C28.555 18.2716 29.07 18.2783 29.5167 18.325C29.8817 18.3483 30.0633 18.635 29.7217 18.7533ZM18.11 11.245C18.47 11.4183 19.15 11.345 19.12 10.7616C19.12 10.71 19.1067 10.5366 19.1017 10.49C19.0283 10.3183 18.8283 10.36 18.7817 10.5383C18.7667 10.5966 18.8067 10.69 18.755 10.72C18.725 10.75 18.61 10.7316 18.615 10.5716C18.615 10.52 18.5767 10.465 18.555 10.4333C18.5317 10.4183 18.5183 10.4133 18.4767 10.4133C18.4267 10.415 18.4267 10.4283 18.4 10.4716C18.3883 10.5133 18.3717 10.5566 18.3717 10.605C18.365 10.6616 18.3433 10.6816 18.3017 10.6916C18.255 10.6916 18.265 10.6966 18.2283 10.6716C18.205 10.6466 18.1767 10.6366 18.1767 10.595C18.1765 10.5463 18.1687 10.4979 18.1533 10.4516C18.1333 10.425 18.1017 10.4133 18.065 10.4033C17.8683 10.4033 17.855 10.6283 17.8667 10.715C17.8483 10.73 17.8417 11.1333 18.11 11.245Z" fill="white"/>
<path d="M29.1867 15.0449C29.1867 14.9933 29.1483 14.9399 29.1267 14.9066C29.1033 14.8916 29.09 14.8866 29.0483 14.8866C28.9983 14.8883 29 14.9016 28.9717 14.9449C28.96 14.9883 28.9433 15.0299 28.9433 15.0783C28.9383 15.1366 28.915 15.1566 28.8733 15.1649C28.8267 15.1649 28.8367 15.1699 28.7983 15.1466C28.775 15.1216 28.7467 15.1116 28.7467 15.0699C28.7467 15.0212 28.7388 14.9728 28.7233 14.9266C28.7033 14.8999 28.6717 14.8883 28.635 14.8799C28.4383 14.8799 28.425 15.1049 28.435 15.1899C28.42 15.2066 28.4117 15.6083 28.68 15.7216C29.0417 15.8933 29.9 15.7933 29.69 15.2383C29.6865 15.147 29.6804 15.0559 29.6717 14.9649C29.5983 14.7933 29.3967 14.8366 29.3517 15.0133C29.3383 15.0716 29.3783 15.1649 29.325 15.1949C29.2983 15.2249 29.1817 15.2066 29.1867 15.0449ZM34.8483 13.8666C35.2083 14.0399 35.8867 13.9666 35.8567 13.3849C35.8532 13.2937 35.847 13.2025 35.8383 13.1116C35.765 12.9399 35.565 12.9833 35.52 13.1599C35.505 13.2183 35.545 13.3116 35.4917 13.3416C35.4617 13.3716 35.3467 13.3549 35.3517 13.1933C35.3517 13.1416 35.3133 13.0866 35.2917 13.0549C35.2683 13.0399 35.255 13.0349 35.2117 13.0349C35.1617 13.0383 35.1633 13.0499 35.135 13.0933C35.1233 13.1366 35.1067 13.1783 35.1067 13.2266C35.1 13.2849 35.0783 13.3049 35.0367 13.3133C34.99 13.3133 35 13.3183 34.9617 13.2949C34.9383 13.2699 34.9117 13.2599 34.9117 13.2183C34.9115 13.169 34.9036 13.1201 34.8883 13.0733C34.8667 13.0466 34.8367 13.0349 34.7983 13.0266C34.6017 13.0266 34.5883 13.2516 34.6 13.3366C34.5883 13.3533 34.58 13.7549 34.8483 13.8666ZM35.0917 11.6133C35.22 11.9733 34.9933 12.3166 35.1283 12.3666C35.25 12.4233 35.4233 11.9949 35.4867 11.5999C35.5617 11.2799 35.3333 10.6249 35.01 10.4899C34.8133 10.4433 34.5333 10.5599 34.6233 10.8233C34.5783 10.9499 35.02 11.3799 35.0917 11.6133ZM38.4167 20.0533C38.6683 20.0549 38.9583 19.4783 39.0817 18.9066C39.15 18.1199 39.035 17.6416 39.015 17.1783C38.9933 16.7166 38.4933 13.1916 38.39 12.8416C38.2683 12.1799 38.8783 12.7533 38.8117 12.3683C38.6 11.8833 38.075 11.1783 37.9083 10.7566C37.8083 10.5766 37.8517 10.4166 37.6283 10.7099C37.4233 11.3849 37.3517 11.9349 37.43 12.3549C37.96 15.1216 38.5033 17.4216 38.4167 20.0533ZM44.6767 12.8199C44.735 12.9999 44.5883 13.5816 44.71 13.6349C44.8217 13.6949 44.9783 13.2333 45.0367 12.8049C45.0683 12.5699 44.8967 11.7499 44.6017 11.6033C44.4217 11.5533 44.1667 11.6783 44.25 11.9649C44.2083 12.1033 44.6117 12.5666 44.6767 12.8199ZM22.8117 18.9133C22.92 18.9583 23.0683 18.6183 23.125 18.3033C23.1567 18.1299 22.99 17.5283 22.7083 17.4199C22.535 17.3833 22.2983 17.4299 22.3717 17.6866C22.3633 17.8249 22.755 17.9916 22.7783 18.3133C22.835 18.4466 22.695 18.8749 22.8117 18.9133ZM15.2183 11.2216C15.2733 11.3599 15.1633 11.8016 15.2783 11.8433C15.3833 11.8899 15.5317 11.5366 15.5867 11.2116C15.6183 11.0316 15.5933 10.4216 15.1767 10.2966C15.005 10.2583 14.7667 10.3533 14.845 10.5716C14.805 10.6749 15.1567 11.0283 15.2183 11.2216ZM23.3883 13.1766C23.07 13.3499 22.945 13.8633 23.145 14.1616C23.33 14.4266 23.6233 14.3283 23.6633 14.3283C23.9767 14.3666 24.1617 13.7416 24.1617 13.7416C24.1617 13.7416 24.1717 13.5666 23.8 13.8983C23.6433 13.9283 23.6233 13.8699 23.585 13.7799C23.5471 13.6168 23.564 13.4457 23.6333 13.2933C23.6867 13.1383 23.5667 13.0699 23.3883 13.1766ZM25.7917 11.2549C25.843 11.2232 25.8871 11.181 25.921 11.131C25.9549 11.081 25.9779 11.0244 25.9883 10.9649C26.0367 10.7216 25.73 11.0799 25.6917 10.8083C25.6233 10.5566 25.82 10.4533 26.0067 10.2099C26.0133 10.0416 26.01 9.92328 25.7817 10.0599C25.6217 10.1683 25.3017 10.4983 25.2917 10.8783C25.2817 11.0933 25.2417 11.0916 25.3833 11.2283C25.485 11.3766 25.5867 11.3616 25.7917 11.2549ZM27.9567 11.3849C28.1633 10.8249 28.1633 10.5883 28.1783 10.3499C28.115 9.98828 27.87 9.99995 27.7083 10.4016C27.6383 10.5533 27.5567 11.3516 27.57 11.3516C27.515 11.5899 27.8183 11.6916 27.9567 11.3849ZM41.5733 15.3566C41.5733 15.3566 39.9017 16.5449 39.8617 16.5866C39.695 16.7333 39.7783 17.2533 39.8617 17.1933C39.98 17.2399 41.6617 16.0983 41.6283 15.9649C41.7067 15.9683 41.745 15.2966 41.5733 15.3566ZM41.3683 18.5799C41.48 18.6399 41.775 18.2749 41.7633 17.8199C41.7967 17.5849 41.6783 16.7233 41.385 16.5766C41.205 16.5266 40.965 16.6799 41.0483 16.9649C41.0067 17.1016 41.255 17.5799 41.32 17.8333C41.3783 18.0149 41.2467 18.5266 41.3683 18.5799ZM31.9017 21.0733C31.9017 21.0883 32.0433 21.2099 32.21 21.1133C32.56 20.9783 32.78 20.8483 33.27 20.7399C33.3983 20.7383 33.39 20.3933 33.1867 20.3816C32.9217 20.3949 32.675 20.4083 32.41 20.6183C32.2467 20.6549 32.22 20.5566 32.1833 20.4666C32.1433 20.2449 32.275 20.0916 32.2467 19.9266C32.2567 19.9366 32.095 19.7883 31.93 19.8716C31.9217 19.8716 31.5617 20.1149 31.4467 20.2849C31.375 20.3399 31.3833 20.3866 31.405 20.4783C31.46 20.6049 31.5583 20.5666 31.6683 20.5066C31.815 20.4866 31.885 20.5833 31.8733 20.7583C31.8033 20.9799 31.9017 21.0616 31.9017 21.0733ZM42.82 21.3499C42.765 21.4449 42.7283 21.5883 42.8983 21.6333C43.2117 21.7216 43.9333 21.2516 43.9333 21.2433C44.05 21.1549 44.0117 20.9899 44.0017 20.9899C43.9333 20.9116 43.78 20.9566 43.6767 20.9449C43.6283 20.9449 43.465 20.9199 43.5433 20.7766C43.5984 20.6993 43.6422 20.6146 43.6733 20.5249C43.7217 20.4166 43.68 20.3449 43.5033 20.2866C43.325 20.2533 43.2533 20.2699 43.055 20.2866C42.9483 20.3099 42.9117 20.3566 42.8917 20.4866C42.9 20.6833 43.0183 20.6733 43.1417 20.7516C43.2133 20.8433 43.26 20.9266 43.1367 21.0749C43.02 21.1833 42.9383 21.2433 42.82 21.3499ZM42.5 29.9999H40V29.1666C40 28.9456 39.9122 28.7336 39.7559 28.5774C39.5996 28.4211 39.3877 28.3333 39.1667 28.3333C38.9457 28.3333 38.7337 28.4211 38.5774 28.5774C38.4211 28.7336 38.3333 28.9456 38.3333 29.1666V29.9999H18.3333C18.3333 29.9999 18.3333 31.6666 23.3333 31.6666H38.3333V32.4999C38.3333 32.721 38.4211 32.9329 38.5774 33.0892C38.7337 33.2455 38.9457 33.3333 39.1667 33.3333C39.3877 33.3333 39.5996 33.2455 39.7559 33.0892C39.9122 32.9329 40 32.721 40 32.4999V31.6666H41.6667V32.4999C41.6667 32.721 41.7545 32.9329 41.9107 33.0892C42.067 33.2455 42.279 33.3333 42.5 33.3333C42.721 33.3333 42.933 33.2455 43.0893 33.0892C43.2455 32.9329 43.3333 32.721 43.3333 32.4999V30.8333C43.3333 30.6123 43.2455 30.4003 43.0893 30.244C42.933 30.0877 42.721 29.9999 42.5 29.9999Z" fill="white"/>
</svg>
