<svg width="22" height="23" viewBox="0 0 22 23" fill="none" xmlns="http://www.w3.org/2000/svg">
<path d="M7.79134 17.9167H7.33301C3.66634 17.9167 1.83301 17 1.83301 12.4167V7.83337C1.83301 4.16671 3.66634 2.33337 7.33301 2.33337H14.6663C18.333 2.33337 20.1663 4.16671 20.1663 7.83337V12.4167C20.1663 16.0834 18.333 17.9167 14.6663 17.9167H14.208C13.9238 17.9167 13.6488 18.0542 13.4747 18.2834L12.0997 20.1167C11.4947 20.9234 10.5047 20.9234 9.89967 20.1167L8.52467 18.2834C8.37801 18.0817 8.03884 17.9167 7.79134 17.9167Z" stroke="#089361" stroke-width="1.5" stroke-miterlimit="10" stroke-linecap="round" stroke-linejoin="round"/>
<path d="M6.41699 7.83337H15.5837" stroke="#089361" stroke-width="1.5" stroke-linecap="round" stroke-linejoin="round"/>
<path d="M6.41699 12.4166H11.917" stroke="#089361" stroke-width="1.5" stroke-linecap="round" stroke-linejoin="round"/>
</svg>
