<svg width="513" height="396" viewBox="0 0 513 396" fill="none" xmlns="http://www.w3.org/2000/svg">
<path fill-rule="evenodd" clip-rule="evenodd" d="M424.024 117.805C431.939 117.805 438.355 124.251 438.355 132.202C438.355 140.154 431.939 146.6 424.024 146.6H342.136C350.051 146.6 356.467 153.046 356.467 160.998C356.467 168.949 350.051 175.395 342.136 175.395H387.175C395.089 175.395 401.505 181.841 401.505 189.793C401.505 197.744 395.089 204.19 387.175 204.19H366.347C356.368 204.19 348.278 210.637 348.278 218.588C348.278 223.889 352.372 228.688 360.561 232.986C368.476 232.986 374.892 239.432 374.892 247.383C374.892 255.335 368.476 261.781 360.561 261.781H190.644C182.729 261.781 176.313 255.335 176.313 247.383C176.313 239.432 182.729 232.986 190.644 232.986H110.803C102.889 232.986 96.4727 226.54 96.4727 218.588C96.4727 210.637 102.889 204.19 110.803 204.19H192.691C200.605 204.19 207.021 197.744 207.021 189.793C207.021 181.841 200.605 175.395 192.691 175.395H141.511C133.597 175.395 127.181 168.949 127.181 160.998C127.181 153.046 133.597 146.6 141.511 146.6H223.399C215.485 146.6 209.069 140.154 209.069 132.202C209.069 124.251 215.485 117.805 223.399 117.805H424.024ZM424.024 175.395C431.939 175.395 438.355 181.841 438.355 189.793C438.355 197.744 431.939 204.19 424.024 204.19C416.11 204.19 409.694 197.744 409.694 189.793C409.694 181.841 416.11 175.395 424.024 175.395Z" fill="#089361" fill-opacity="0.29"/>
<path d="M246.941 257.669C284.817 257.669 315.522 226.82 315.522 188.766C315.522 150.712 284.817 119.863 246.941 119.863C209.064 119.863 178.359 150.712 178.359 188.766C178.359 226.82 209.064 257.669 246.941 257.669Z" fill="#181818" stroke="#089361" stroke-width="3.51162"/>
<path fill-rule="evenodd" clip-rule="evenodd" d="M235.953 242.231C239.553 242.899 243.217 243.246 246.942 243.272C276.904 243.272 301.193 218.869 301.193 188.767C301.193 158.665 276.904 134.262 246.942 134.262C239.245 134.262 231.923 135.872 225.291 138.776C213.765 143.821 204.323 152.773 198.62 163.966C194.83 171.405 192.691 179.835 192.691 188.767C192.691 196.871 194.452 204.562 197.609 211.474C199.863 216.41 202.829 220.948 206.376 224.958" fill="#181818"/>
<path d="M235.953 242.231C239.553 242.899 243.217 243.246 246.942 243.272C276.904 243.272 301.193 218.87 301.193 188.767C301.193 158.665 276.904 134.262 246.942 134.262C239.245 134.262 231.923 135.872 225.291 138.776C213.765 143.821 204.323 152.773 198.62 163.966C194.83 171.405 192.691 179.835 192.691 188.767C192.691 196.871 194.452 204.562 197.609 211.474C199.863 216.41 202.829 220.948 206.376 224.958" stroke="#089361" stroke-width="3.51162" stroke-linecap="round"/>
<path d="M212.746 231.082C217.144 234.673 222.112 237.586 227.493 239.663" stroke="#089361" stroke-width="3.51162" stroke-linecap="round"/>
<path d="M303.234 243.271L315.518 255.612" stroke="#089361" stroke-width="3.51162"/>
<path fill-rule="evenodd" clip-rule="evenodd" d="M313.539 253.617C309.664 257.51 309.664 263.822 313.539 267.715L336.233 290.515C340.107 294.408 346.39 294.408 350.264 290.515C354.139 286.622 354.139 280.31 350.264 276.417L327.571 253.617C323.696 249.724 317.414 249.724 313.539 253.617Z" fill="#181818" stroke="#089361" stroke-width="3.51162"/>
<path d="M323.715 257.668L346.234 280.293" stroke="#3E3E3E" stroke-width="3.51162" stroke-linecap="round"/>
<path fill-rule="evenodd" clip-rule="evenodd" d="M233.631 165.114C233.631 188.969 252.879 208.307 276.622 208.307C281.286 208.307 285.777 207.561 289.983 206.181C283.118 223.295 266.432 235.376 246.938 235.376C221.317 235.376 200.547 214.509 200.547 188.768C200.547 165.442 217.601 146.119 239.865 142.697C235.909 149.234 233.631 156.907 233.631 165.114Z" fill="#3E3E3E"/>
<path d="M247.967 150.717C245.36 150.717 242.813 150.974 240.35 151.466M232.909 153.753C218.905 159.666 209.07 173.577 209.07 189.796" stroke="#089361" stroke-width="3.51162" stroke-linecap="round"/>
<path d="M356.825 189.334H340.087M369.772 173.338H334.609H369.772ZM384.102 173.338H379.555H384.102Z" stroke="#089361" stroke-width="3.51162" stroke-linecap="round" stroke-linejoin="round"/>
<path d="M172.577 234.585H155.839M163.005 216.531H127.842H163.005ZM115.919 216.531H107.277H115.919Z" stroke="#089361" stroke-width="3.51162" stroke-linecap="round" stroke-linejoin="round"/>
</svg>
