<svg width="291" height="291" viewBox="0 0 291 291" fill="none" xmlns="http://www.w3.org/2000/svg">
<path d="M230.053 266.19C230.053 272.848 224.655 278.246 217.997 278.246C211.338 278.246 205.94 272.848 205.94 266.19C205.94 259.531 211.338 254.133 217.997 254.133C224.655 254.133 230.053 259.531 230.053 266.19Z" fill="#2BDA89"/>
<path d="M278.279 217.963C278.279 224.622 272.881 230.02 266.223 230.02C259.564 230.02 254.166 224.622 254.166 217.963C254.166 211.305 259.564 205.907 266.223 205.907C272.881 205.907 278.279 211.305 278.279 217.963Z" fill="#2BDA89"/>
<path d="M37.1483 73.2847C37.1483 79.9434 31.7504 85.3413 25.0917 85.3413C18.4331 85.3413 13.0352 79.9434 13.0352 73.2847C13.0352 66.6261 18.4331 61.2282 25.0917 61.2282C31.7504 61.2282 37.1483 66.6261 37.1483 73.2847Z" fill="#2BDA89"/>
<path d="M85.3745 25.0585C85.3745 31.7172 79.9766 37.1151 73.3179 37.1151C66.6593 37.1151 61.2614 31.7172 61.2614 25.0585C61.2614 18.3999 66.6593 13.002 73.3179 13.002C79.9766 13.002 85.3745 18.3999 85.3745 25.0585Z" fill="#2BDA89"/>
<path fill-rule="evenodd" clip-rule="evenodd" d="M145.657 79.107L137.794 111.535C134.651 124.497 124.53 134.618 111.568 137.761L79.1402 145.624L111.568 153.487C124.53 156.63 134.651 166.751 137.794 179.713L145.657 212.141L153.521 179.713C156.664 166.751 166.784 156.63 179.746 153.487L212.174 145.624L179.746 137.761C166.784 134.618 156.664 124.497 153.521 111.535L145.657 79.107ZM161.394 61.5484C157.392 45.046 133.922 45.046 129.921 61.5484L118.91 106.956C117.481 112.848 112.881 117.448 106.989 118.877L61.5816 129.887C45.0792 133.889 45.0792 157.359 61.5816 161.361L106.989 172.371C112.881 173.8 117.481 178.4 118.91 184.292L129.921 229.7C133.922 246.202 157.392 246.202 161.394 229.7L172.405 184.292C173.833 178.4 178.434 173.8 184.325 172.371L229.733 161.361C246.235 157.359 246.235 133.889 229.733 129.887L184.325 118.877C178.434 117.448 173.833 112.848 172.405 106.956L161.394 61.5484Z" fill="#2BDA89"/>
<path fill-rule="evenodd" clip-rule="evenodd" d="M109.543 269.984C107.448 275.598 101.198 278.451 95.5831 276.355C59.2154 262.782 30.0026 234.603 15.0816 198.948C12.7681 193.42 15.3741 187.063 20.9024 184.75C26.4306 182.436 32.7875 185.042 35.101 190.57C47.7123 220.706 72.4322 244.55 103.172 256.024C108.786 258.119 111.639 264.369 109.543 269.984Z" fill="#2BDA89"/>
<path fill-rule="evenodd" clip-rule="evenodd" d="M270.025 109.705C264.412 111.805 258.159 108.957 256.059 103.344C244.496 72.4352 220.373 47.6129 189.897 35.0957C184.353 32.8188 181.705 26.4793 183.982 20.9358C186.259 15.3924 192.598 12.7443 198.142 15.0212C234.185 29.8249 262.698 59.1541 276.385 95.7396C278.485 101.352 275.637 107.605 270.025 109.705Z" fill="#2BDA89"/>
</svg>
