<svg width="48" height="48" viewBox="0 0 48 48" fill="none" xmlns="http://www.w3.org/2000/svg">
<g clip-path="url(#clip0_2617_3497)">
<rect width="48" height="48" fill="#2C2C2C"/>
<path d="M30.3599 34.7499H17.5899C16.0699 34.7499 14.6799 33.9799 13.8799 32.6799C13.0799 31.3799 13.0099 29.7999 13.6899 28.4299L15.4099 24.9799C15.9699 23.8599 16.8699 23.1599 17.8799 23.0499C18.8899 22.9399 19.9199 23.4399 20.6999 24.4099L20.9199 24.6899C21.3599 25.2299 21.8699 25.5199 22.3699 25.4699C22.8699 25.4299 23.3299 25.0699 23.6699 24.4599L25.5599 21.0499C26.3399 19.6399 27.3799 18.9099 28.5099 18.9599C29.6299 19.0199 30.5899 19.8599 31.2299 21.3399L34.3599 28.6499C34.9399 29.9999 34.7999 31.5399 33.9899 32.7699C33.1899 34.0199 31.8299 34.7499 30.3599 34.7499ZM18.1599 24.5499C18.1199 24.5499 18.0799 24.5499 18.0399 24.5599C17.5399 24.6099 17.0799 25.0099 16.7499 25.6599L15.0299 29.1099C14.5799 29.9999 14.6299 31.0499 15.1499 31.8999C15.6699 32.7499 16.5899 33.2599 17.5899 33.2599H30.3499C31.3299 33.2599 32.1999 32.7899 32.7399 31.9699C33.2799 31.1499 33.3699 30.1699 32.9799 29.2699L29.8499 21.9599C29.4699 21.0599 28.9399 20.5099 28.4299 20.4899C27.9599 20.4599 27.3499 20.9599 26.8699 21.8099L24.9799 25.2199C24.3999 26.2599 23.4899 26.9099 22.4999 26.9999C21.5099 27.0799 20.4999 26.5999 19.7499 25.6599L19.5299 25.3799C19.1099 24.8299 18.6299 24.5499 18.1599 24.5499Z" fill="#7E92A2"/>
<path d="M18.9697 20.75C16.9097 20.75 15.2197 19.07 15.2197 17C15.2197 14.93 16.8997 13.25 18.9697 13.25C21.0397 13.25 22.7197 14.93 22.7197 17C22.7197 19.07 21.0397 20.75 18.9697 20.75ZM18.9697 14.75C17.7297 14.75 16.7197 15.76 16.7197 17C16.7197 18.24 17.7297 19.25 18.9697 19.25C20.2097 19.25 21.2197 18.24 21.2197 17C21.2197 15.76 20.2097 14.75 18.9697 14.75Z" fill="#7E92A2"/>
</g>
<defs>
<clipPath id="clip0_2617_3497">
<rect width="48" height="48" rx="4" fill="white"/>
</clipPath>
</defs>
</svg>
