<svg width="20" height="20" viewBox="0 0 20 20" fill="none" xmlns="http://www.w3.org/2000/svg">
<path d="M19.1666 14.925C19.1833 15.55 19.0166 16.1416 18.7166 16.65C18.55 16.95 18.325 17.225 18.075 17.45C17.5 17.9833 16.7416 18.3083 15.9 18.3333C14.6833 18.3583 13.6083 17.7333 13.0166 16.775C12.7 16.2833 12.5083 15.6917 12.5 15.0667C12.475 14.0167 12.9416 13.0666 13.6916 12.4416C14.2583 11.975 14.975 11.6833 15.7583 11.6666C17.6 11.625 19.125 13.0833 19.1666 14.925Z" stroke="#49356E" stroke-width="1.25" stroke-miterlimit="10" stroke-linecap="round" stroke-linejoin="round"/>
<path d="M14.5337 15.025L15.3754 15.825L17.117 14.1416" stroke="#49356E" stroke-width="1.25" stroke-linecap="round" stroke-linejoin="round"/>
<path d="M2.6416 6.19995L9.99992 10.4583L17.3082 6.22492" stroke="#49356E" stroke-width="1.25" stroke-linecap="round" stroke-linejoin="round"/>
<path d="M10 18.0083V10.45" stroke="#49356E" stroke-width="1.25" stroke-linecap="round" stroke-linejoin="round"/>
<path d="M18.0083 7.64175V12.3584C18.0083 12.4001 18.0084 12.4334 18 12.4751C17.4167 11.9667 16.6667 11.6668 15.8334 11.6668C15.05 11.6668 14.325 11.9418 13.75 12.4001C12.9834 13.0084 12.5 13.9501 12.5 15.0001C12.5 15.6251 12.675 16.2168 12.9833 16.7168C13.0583 16.8501 13.15 16.9751 13.25 17.0918L11.725 17.9334C10.775 18.4668 9.22501 18.4668 8.27501 17.9334L3.82502 15.4668C2.81668 14.9084 1.9917 13.5084 1.9917 12.3584V7.64175C1.9917 6.49175 2.81668 5.09177 3.82502 4.53343L8.27501 2.06675C9.22501 1.53341 10.775 1.53341 11.725 2.06675L16.175 4.53343C17.1834 5.09177 18.0083 6.49175 18.0083 7.64175Z" stroke="#49356E" stroke-width="1.25" stroke-linecap="round" stroke-linejoin="round"/>
</svg>
