<svg width="38" height="38" viewBox="0 0 38 38" fill="none" xmlns="http://www.w3.org/2000/svg">
<path d="M21.9724 12.072L11.4183 13.5885C4.32562 14.6026 3.66342 18.2615 9.95078 21.6971L11.852 22.7377C12.4047 23.0459 12.7793 23.5861 12.8742 24.2117L13.1761 26.3479C14.1902 33.4405 17.84 34.1091 21.2847 27.8154L26.404 18.4622C28.7005 14.2664 26.7069 11.3917 21.9724 12.072ZM21.7073 18.0045L16.7636 21.433C16.3883 21.6933 15.8611 21.5979 15.6008 21.2226C15.3405 20.8472 15.4359 20.3201 15.8112 20.0597L20.755 16.6312C21.1303 16.3709 21.6575 16.4663 21.9178 16.8417C22.1781 17.217 22.0827 17.7442 21.7073 18.0045Z" fill="#49356E"/>
</svg>
