<svg width="18" height="17" viewBox="0 0 18 17" fill="none" xmlns="http://www.w3.org/2000/svg">
<path d="M8.01649 1.50273C8.39119 0.349504 10.0227 0.349501 10.3974 1.50273L11.4807 4.83686C11.6483 5.3526 12.1289 5.70178 12.6712 5.70178H16.1769C17.3895 5.70178 17.8936 7.25343 16.9126 7.96617L14.0765 10.0268C13.6378 10.3455 13.4542 10.9105 13.6218 11.4262L14.7051 14.7604C15.0798 15.9136 13.7599 16.8726 12.7789 16.1598L9.94269 14.0992C9.50398 13.7805 8.90992 13.7805 8.4712 14.0992L5.63502 16.1598C4.65403 16.8726 3.33411 15.9136 3.70882 14.7604L4.79214 11.4262C4.95971 10.9105 4.77614 10.3455 4.33743 10.0268L1.50125 7.96617C0.520255 7.25344 1.02442 5.70178 2.23699 5.70178H5.7427C6.28498 5.70178 6.76559 5.3526 6.93316 4.83686L8.01649 1.50273Z" fill="#FFCC00"/>
</svg>
