<svg width="72" height="72" viewBox="0 0 72 72" fill="none" xmlns="http://www.w3.org/2000/svg">
<path d="M38.3556 64.0534C39.2901 64.2788 39.3758 65.5477 38.4655 65.8622L33.0909 67.6959C19.5864 72.2094 12.477 68.4364 8.0889 54.4373L3.73481 40.5088C-0.619279 26.5098 2.98645 19.1048 16.4909 14.5912L18.2734 13.9793C19.6438 13.5089 20.9774 14.9337 20.5883 16.3747C20.3954 17.089 20.2099 17.8345 20.0286 18.6111L16.695 33.3859C12.9532 49.9943 18.4299 59.1625 34.4516 63.1118L38.3556 64.0534Z" fill="#089361"/>
<path d="M53.6368 4.99993L47.956 3.62471C36.5946 0.839012 29.8253 3.13104 25.8454 11.6645C24.8249 13.8154 24.0085 16.4248 23.3282 19.4221L19.9946 34.1969C16.661 48.9365 21.0491 56.2004 35.2339 59.6914L40.9487 61.1019C42.9216 61.5955 44.7585 61.9129 46.4593 62.0539C57.0724 63.1118 62.7191 57.9635 65.5765 45.2339L68.9101 30.4944C72.2437 15.7549 67.8896 8.45562 53.6368 4.99993ZM47.2417 40.6851C46.9356 41.884 45.9151 42.6598 44.7585 42.6598C44.5544 42.6598 44.3503 42.6245 44.1122 42.5893L34.2134 39.9799C32.8528 39.6273 32.0364 38.1815 32.3766 36.771C32.7167 35.3606 34.1114 34.5143 35.4721 34.8669L45.3708 37.4763C46.7655 37.8289 47.5819 39.2747 47.2417 40.6851ZM57.2085 28.7666C56.9023 29.9655 55.8819 30.7412 54.7253 30.7412C54.5212 30.7412 54.3171 30.706 54.079 30.6707L37.5811 26.3335C36.2204 25.9809 35.404 24.5351 35.7442 23.1246C36.0843 21.7141 37.479 20.8679 38.8397 21.2205L55.3376 25.5577C56.7323 25.8751 57.5487 27.3208 57.2085 28.7666Z" fill="#089361"/>
</svg>
