<svg width="18" height="18" viewBox="0 0 18 18" fill="none" xmlns="http://www.w3.org/2000/svg">
<g id="ph:file-video">
<path id="Vector" d="M10.5084 10.8682C10.4266 10.8173 10.333 10.788 10.2367 10.7831C10.1404 10.7783 10.0444 10.798 9.95779 10.8405L8.45005 11.5787C8.37761 11.3479 8.2334 11.1461 8.03839 11.0029C7.84339 10.8596 7.60776 10.7823 7.36579 10.7822H3.38684C3.08533 10.7822 2.79617 10.902 2.58297 11.1152C2.36977 11.3284 2.25 11.6176 2.25 11.9191V14.7612C2.25 15.0627 2.36977 15.3519 2.58297 15.5651C2.79617 15.7783 3.08533 15.898 3.38684 15.898H7.36579C7.61597 15.8977 7.85907 15.815 8.05742 15.6625C8.25576 15.51 8.39826 15.2963 8.46284 15.0546L9.94358 15.8362C10.0305 15.8818 10.1277 15.9042 10.2258 15.9011C10.3239 15.898 10.4195 15.8696 10.5033 15.8186C10.5872 15.7676 10.6564 15.6957 10.7042 15.6101C10.7521 15.5244 10.7769 15.4277 10.7763 15.3296V11.3507C10.7763 11.2541 10.7517 11.1592 10.7049 11.0747C10.658 10.9903 10.5904 10.9193 10.5084 10.8682ZM7.36579 14.7612H3.38684V11.9191H7.36579V14.7612ZM9.63947 14.3889L8.50263 13.7906V12.8186L9.63947 12.2623V14.3889ZM15.1574 5.83271L11.1785 1.85376C11.1256 1.80099 11.0629 1.75915 10.9939 1.73062C10.9249 1.70209 10.851 1.68744 10.7763 1.6875H3.95526C3.65375 1.6875 3.36459 1.80727 3.15139 2.02047C2.9382 2.23367 2.81842 2.52283 2.81842 2.82434V9.07697C2.81842 9.22773 2.87831 9.37231 2.98491 9.47891C3.09151 9.58551 3.23609 9.64539 3.38684 9.64539C3.5376 9.64539 3.68218 9.58551 3.78878 9.47891C3.89538 9.37231 3.95526 9.22773 3.95526 9.07697V2.82434H10.2079V6.23487C10.2079 6.38562 10.2678 6.5302 10.3744 6.6368C10.481 6.7434 10.6256 6.80329 10.7763 6.80329H14.1868V15.3296H12.4816C12.3308 15.3296 12.1862 15.3895 12.0796 15.4961C11.973 15.6027 11.9132 15.7473 11.9132 15.898C11.9132 16.0488 11.973 16.1934 12.0796 16.3C12.1862 16.4066 12.3308 16.4664 12.4816 16.4664H14.1868C14.4884 16.4664 14.7775 16.3467 14.9907 16.1335C15.2039 15.9203 15.3237 15.6311 15.3237 15.3296V6.23487C15.3237 6.1602 15.3091 6.08625 15.2806 6.01725C15.252 5.94825 15.2102 5.88554 15.1574 5.83271ZM11.3447 3.62795L13.3832 5.66645H11.3447V3.62795Z" fill="white"/>
</g>
</svg>
